<svg id="visual" viewBox="0 0 900 600" width="900" height="600" xmlns="http://www.w3.org/2000/svg" xmlns:xlink="http://www.w3.org/1999/xlink" version="1.1"><rect x="0" y="0" width="900" height="600" fill="#001220"></rect><path d="M0 391L21.5 399.7C43 408.3 86 425.7 128.8 420C171.7 414.3 214.3 385.7 257.2 375.8C300 366 343 375 385.8 375.8C428.7 376.7 471.3 369.3 514.2 374.2C557 379 600 396 642.8 407.8C685.7 419.7 728.3 426.3 771.2 416C814 405.7 857 378.3 878.5 364.7L900 351L900 601L878.5 601C857 601 814 601 771.2 601C728.3 601 685.7 601 642.8 601C600 601 557 601 514.2 601C471.3 601 428.7 601 385.8 601C343 601 300 601 257.2 601C214.3 601 171.7 601 128.8 601C86 601 43 601 21.5 601L0 601Z" fill="#fa7268"></path><path d="M0 412L21.5 418C43 424 86 436 128.8 445.8C171.7 455.7 214.3 463.3 257.2 468.3C300 473.3 343 475.7 385.8 472.7C428.7 469.7 471.3 461.3 514.2 454.7C557 448 600 443 642.8 437.5C685.7 432 728.3 426 771.2 430.8C814 435.7 857 451.3 878.5 459.2L900 467L900 601L878.5 601C857 601 814 601 771.2 601C728.3 601 685.7 601 642.8 601C600 601 557 601 514.2 601C471.3 601 428.7 601 385.8 601C343 601 300 601 257.2 601C214.3 601 171.7 601 128.8 601C86 601 43 601 21.5 601L0 601Z" fill="#ef5f67"></path><path d="M0 456L21.5 455.5C43 455 86 454 128.8 460.5C171.7 467 214.3 481 257.2 486.2C300 491.3 343 487.7 385.8 480.5C428.7 473.3 471.3 462.7 514.2 455.3C557 448 600 444 642.8 446.2C685.7 448.3 728.3 456.7 771.2 459.2C814 461.7 857 458.3 878.5 456.7L900 455L900 601L878.5 601C857 601 814 601 771.2 601C728.3 601 685.7 601 642.8 601C600 601 557 601 514.2 601C471.3 601 428.7 601 385.8 601C343 601 300 601 257.2 601C214.3 601 171.7 601 128.8 601C86 601 43 601 21.5 601L0 601Z" fill="#e34c67"></path><path d="M0 486L21.5 486.5C43 487 86 488 128.8 495.8C171.7 503.7 214.3 518.3 257.2 520.2C300 522 343 511 385.8 506.2C428.7 501.3 471.3 502.7 514.2 503.7C557 504.7 600 505.3 642.8 511.2C685.7 517 728.3 528 771.2 525.5C814 523 857 507 878.5 499L900 491L900 601L878.5 601C857 601 814 601 771.2 601C728.3 601 685.7 601 642.8 601C600 601 557 601 514.2 601C471.3 601 428.7 601 385.8 601C343 601 300 601 257.2 601C214.3 601 171.7 601 128.8 601C86 601 43 601 21.5 601L0 601Z" fill="#d53867"></path><path d="M0 533L21.5 532.3C43 531.7 86 530.3 128.8 532.5C171.7 534.7 214.3 540.3 257.2 540.2C300 540 343 534 385.8 537C428.7 540 471.3 552 514.2 554.8C557 557.7 600 551.3 642.8 551.5C685.7 551.7 728.3 558.3 771.2 560.8C814 563.3 857 561.7 878.5 560.8L900 560L900 601L878.5 601C857 601 814 601 771.2 601C728.3 601 685.7 601 642.8 601C600 601 557 601 514.2 601C471.3 601 428.7 601 385.8 601C343 601 300 601 257.2 601C214.3 601 171.7 601 128.8 601C86 601 43 601 21.5 601L0 601Z" fill="#c62368"></path></svg>