<svg id="visual" viewBox="0 0 900 600" width="900" height="600" xmlns="http://www.w3.org/2000/svg" xmlns:xlink="http://www.w3.org/1999/xlink" version="1.1"><g stroke-width="1" stroke-linejoin="bevel"><path d="M418 303L313.5 229L366.5 326Z" fill="#00101c" stroke="#00101c"></path><path d="M418 303L452 193L313.5 229Z" fill="#19435d" stroke="#19435d"></path><path d="M313.5 229L234 338L366.5 326Z" fill="#0c2435" stroke="#0c2435"></path><path d="M452 193L339.5 98L313.5 229Z" fill="#1d4e6b" stroke="#1d4e6b"></path><path d="M313.5 229L206 210L234 338Z" fill="#00101c" stroke="#00101c"></path><path d="M247 95L206 210L313.5 229Z" fill="#277297" stroke="#277297"></path><path d="M482 409L529.5 336L418 303Z" fill="#19435d" stroke="#19435d"></path><path d="M418 303L529.5 336L452 193Z" fill="#112e42" stroke="#112e42"></path><path d="M482 409L418 303L366.5 326Z" fill="#112e42" stroke="#112e42"></path><path d="M234 338L304.5 427L366.5 326Z" fill="#277297" stroke="#277297"></path><path d="M356.5 474L482 409L366.5 326Z" fill="#112e42" stroke="#112e42"></path><path d="M339.5 98L247 95L313.5 229Z" fill="#246688" stroke="#246688"></path><path d="M529.5 336L553.5 160L452 193Z" fill="#00101c" stroke="#00101c"></path><path d="M452 193L463 63L339.5 98Z" fill="#15384f" stroke="#15384f"></path><path d="M304.5 427L356.5 474L366.5 326Z" fill="#246688" stroke="#246688"></path><path d="M542.5 85L463 63L452 193Z" fill="#297ea6" stroke="#297ea6"></path><path d="M339.5 98L347.5 0L247 95Z" fill="#277297" stroke="#277297"></path><path d="M356.5 474L439 487L482 409Z" fill="#00101c" stroke="#00101c"></path><path d="M482 409L582.5 379L529.5 336Z" fill="#0c2435" stroke="#0c2435"></path><path d="M561.5 506L582.5 379L482 409Z" fill="#297ea6" stroke="#297ea6"></path><path d="M529.5 336L639 186L553.5 160Z" fill="#00101c" stroke="#00101c"></path><path d="M304.5 427L232 526L356.5 474Z" fill="#1d4e6b" stroke="#1d4e6b"></path><path d="M234 338L195 437L304.5 427Z" fill="#19435d" stroke="#19435d"></path><path d="M112.5 420L195 437L234 338Z" fill="#0c2435" stroke="#0c2435"></path><path d="M553.5 160L542.5 85L452 193Z" fill="#277297" stroke="#277297"></path><path d="M124.5 120L117.5 237L206 210Z" fill="#081a28" stroke="#081a28"></path><path d="M206 210L117.5 237L234 338Z" fill="#00101c" stroke="#00101c"></path><path d="M463 63L347.5 0L339.5 98Z" fill="#112e42" stroke="#112e42"></path><path d="M475 0L347.5 0L463 63Z" fill="#00101c" stroke="#00101c"></path><path d="M117.5 237L98.5 317L234 338Z" fill="#297ea6" stroke="#297ea6"></path><path d="M693 283L639 186L529.5 336Z" fill="#297ea6" stroke="#297ea6"></path><path d="M553.5 160L668 109L542.5 85Z" fill="#00101c" stroke="#00101c"></path><path d="M247 95L124.5 120L206 210Z" fill="#277297" stroke="#277297"></path><path d="M117.5 237L0 270L98.5 317Z" fill="#277297" stroke="#277297"></path><path d="M236 0L124.5 120L247 95Z" fill="#081a28" stroke="#081a28"></path><path d="M571.5 0L475 0L542.5 85Z" fill="#112e42" stroke="#112e42"></path><path d="M542.5 85L475 0L463 63Z" fill="#19435d" stroke="#19435d"></path><path d="M347.5 0L236 0L247 95Z" fill="#205a7a" stroke="#205a7a"></path><path d="M83.5 474L232 526L195 437Z" fill="#246688" stroke="#246688"></path><path d="M195 437L232 526L304.5 427Z" fill="#205a7a" stroke="#205a7a"></path><path d="M356.5 474L349.5 600L439 487Z" fill="#19435d" stroke="#19435d"></path><path d="M98.5 317L112.5 420L234 338Z" fill="#277297" stroke="#277297"></path><path d="M561.5 506L651 387L582.5 379Z" fill="#15384f" stroke="#15384f"></path><path d="M582.5 379L693 283L529.5 336Z" fill="#081a28" stroke="#081a28"></path><path d="M460 600L561.5 506L439 487Z" fill="#15384f" stroke="#15384f"></path><path d="M439 487L561.5 506L482 409Z" fill="#081a28" stroke="#081a28"></path><path d="M651 387L693 283L582.5 379Z" fill="#00101c" stroke="#00101c"></path><path d="M668 109L571.5 0L542.5 85Z" fill="#15384f" stroke="#15384f"></path><path d="M668 109L553.5 160L639 186Z" fill="#297ea6" stroke="#297ea6"></path><path d="M794.5 176L668 109L639 186Z" fill="#15384f" stroke="#15384f"></path><path d="M232 526L349.5 600L356.5 474Z" fill="#0c2435" stroke="#0c2435"></path><path d="M349.5 600L460 600L439 487Z" fill="#1d4e6b" stroke="#1d4e6b"></path><path d="M0 385L83.5 474L112.5 420Z" fill="#297ea6" stroke="#297ea6"></path><path d="M112.5 420L83.5 474L195 437Z" fill="#205a7a" stroke="#205a7a"></path><path d="M232 526L243 600L349.5 600Z" fill="#15384f" stroke="#15384f"></path><path d="M110.5 600L243 600L232 526Z" fill="#15384f" stroke="#15384f"></path><path d="M98.5 317L0 385L112.5 420Z" fill="#00101c" stroke="#00101c"></path><path d="M0 174L0 270L117.5 237Z" fill="#112e42" stroke="#112e42"></path><path d="M0 128L0 174L124.5 120Z" fill="#205a7a" stroke="#205a7a"></path><path d="M124.5 120L0 174L117.5 237Z" fill="#19435d" stroke="#19435d"></path><path d="M0 270L0 385L98.5 317Z" fill="#297ea6" stroke="#297ea6"></path><path d="M72.5 0L0 128L124.5 120Z" fill="#277297" stroke="#277297"></path><path d="M236 0L72.5 0L124.5 120Z" fill="#277297" stroke="#277297"></path><path d="M460 600L599.5 600L561.5 506Z" fill="#081a28" stroke="#081a28"></path><path d="M561.5 506L704 510L651 387Z" fill="#297ea6" stroke="#297ea6"></path><path d="M826.5 419L812.5 294L693 283Z" fill="#297ea6" stroke="#297ea6"></path><path d="M660 600L704 510L561.5 506Z" fill="#205a7a" stroke="#205a7a"></path><path d="M768.5 75L699 0L668 109Z" fill="#112e42" stroke="#112e42"></path><path d="M668 109L699 0L571.5 0Z" fill="#112e42" stroke="#112e42"></path><path d="M794.5 176L639 186L693 283Z" fill="#0c2435" stroke="#0c2435"></path><path d="M83.5 474L110.5 600L232 526Z" fill="#0c2435" stroke="#0c2435"></path><path d="M0 600L110.5 600L83.5 474Z" fill="#246688" stroke="#246688"></path><path d="M0 385L0 480L83.5 474Z" fill="#277297" stroke="#277297"></path><path d="M812.5 294L794.5 176L693 283Z" fill="#1d4e6b" stroke="#1d4e6b"></path><path d="M794.5 176L768.5 75L668 109Z" fill="#00101c" stroke="#00101c"></path><path d="M826.5 419L693 283L651 387Z" fill="#00101c" stroke="#00101c"></path><path d="M599.5 600L660 600L561.5 506Z" fill="#19435d" stroke="#19435d"></path><path d="M704 510L826.5 419L651 387Z" fill="#205a7a" stroke="#205a7a"></path><path d="M72.5 0L0 0L0 128Z" fill="#081a28" stroke="#081a28"></path><path d="M808.5 494L826.5 419L704 510Z" fill="#277297" stroke="#277297"></path><path d="M767.5 600L808.5 494L704 510Z" fill="#246688" stroke="#246688"></path><path d="M0 480L0 600L83.5 474Z" fill="#112e42" stroke="#112e42"></path><path d="M900 83L768.5 75L794.5 176Z" fill="#0c2435" stroke="#0c2435"></path><path d="M900 83L796.5 0L768.5 75Z" fill="#205a7a" stroke="#205a7a"></path><path d="M768.5 75L796.5 0L699 0Z" fill="#1d4e6b" stroke="#1d4e6b"></path><path d="M900 291L794.5 176L812.5 294Z" fill="#205a7a" stroke="#205a7a"></path><path d="M660 600L767.5 600L704 510Z" fill="#081a28" stroke="#081a28"></path><path d="M900 425L826.5 419L808.5 494Z" fill="#112e42" stroke="#112e42"></path><path d="M900 425L900 291L826.5 419Z" fill="#297ea6" stroke="#297ea6"></path><path d="M826.5 419L900 291L812.5 294Z" fill="#1d4e6b" stroke="#1d4e6b"></path><path d="M900 291L900 163L794.5 176Z" fill="#15384f" stroke="#15384f"></path><path d="M900 524L900 425L808.5 494Z" fill="#1d4e6b" stroke="#1d4e6b"></path><path d="M900 163L900 83L794.5 176Z" fill="#19435d" stroke="#19435d"></path><path d="M900 83L900 0L796.5 0Z" fill="#246688" stroke="#246688"></path><path d="M900 600L900 524L808.5 494Z" fill="#277297" stroke="#277297"></path><path d="M767.5 600L900 600L808.5 494Z" fill="#0c2435" stroke="#0c2435"></path></g></svg>